<svg width="16" height="16" viewBox="0 0 16 16" fill="none" xmlns="http://www.w3.org/2000/svg">
<path d="M9.61943 12.5467C9.49276 12.5467 9.36609 12.5001 9.26609 12.4001C9.07276 12.2067 9.07276 11.8867 9.26609 11.6934L12.9594 8.00007L9.26609 4.30675C9.07276 4.11341 9.07276 3.79341 9.26609 3.60008C9.45943 3.40674 9.77943 3.40674 9.97276 3.60008L14.0194 7.64673C14.2128 7.84007 14.2128 8.16007 14.0194 8.3534L9.97276 12.4001C9.87276 12.5001 9.74609 12.5467 9.61943 12.5467Z" fill="white"/>
<path d="M13.5534 8.5H2.33337C2.06004 8.5 1.83337 8.27333 1.83337 8C1.83337 7.72667 2.06004 7.5 2.33337 7.5H13.5534C13.8267 7.5 14.0534 7.72667 14.0534 8C14.0534 8.27333 13.8267 8.5 13.5534 8.5Z" fill="white"/>
</svg>
