<svg width="24" height="24" viewBox="0 0 24 24" fill="none" xmlns="http://www.w3.org/2000/svg">
<g clip-path="url(#clip0_161_3178)">
<path d="M17.034 0H6.97798C2.60998 0 0.00598145 2.604 0.00598145 6.972V17.016C0.00598145 21.396 2.60998 24 6.97798 24H17.022C21.39 24 23.994 21.396 23.994 17.028V6.972C24.006 2.604 21.402 0 17.034 0ZM12.006 16.656C9.43798 16.656 7.34998 14.568 7.34998 12C7.34998 9.432 9.43798 7.344 12.006 7.344C14.574 7.344 16.662 9.432 16.662 12C16.662 14.568 14.574 16.656 12.006 16.656ZM19.11 5.856C19.05 6 18.966 6.132 18.858 6.252C18.738 6.36 18.606 6.444 18.462 6.504C18.318 6.564 18.162 6.6 18.006 6.6C17.682 6.6 17.382 6.48 17.154 6.252C17.046 6.132 16.962 6 16.902 5.856C16.842 5.712 16.806 5.556 16.806 5.4C16.806 5.244 16.842 5.088 16.902 4.944C16.962 4.788 17.046 4.668 17.154 4.548C17.43 4.272 17.85 4.14 18.234 4.224C18.318 4.236 18.39 4.26 18.462 4.296C18.534 4.32 18.606 4.356 18.678 4.404C18.738 4.44 18.798 4.5 18.858 4.548C18.966 4.668 19.05 4.788 19.11 4.944C19.17 5.088 19.206 5.244 19.206 5.4C19.206 5.556 19.17 5.712 19.11 5.856Z" fill="#BDBDBD"/>
</g>
<defs>
<clipPath id="clip0_161_3178">
<rect width="24" height="24" fill="white"/>
</clipPath>
</defs>
</svg>
