<svg width="23" height="24" viewBox="0 0 23 24" fill="none" xmlns="http://www.w3.org/2000/svg">
<path fill-rule="evenodd" clip-rule="evenodd" d="M19.1453 8.89513V7.19704L11.2986 3.71726L10.5293 4.0584V19.9417L11.2986 20.2828L12.0679 19.9417V12.8657H14.1232V11.2965L12.0679 11.2965V5.77023L15.7324 7.38825V18.3165L17.271 17.6343V8.06755L19.1453 8.89513ZM20.7487 17.836V17.846L11.2986 22.0368L1.84849 17.846V17.836L1.80381 17.8161V6.18386L1.84849 6.16405V6.15411L11.2986 1.96329L20.7487 6.15411V6.16404L20.7934 6.18386V17.8161L20.7487 17.836ZM5.17945 6.43091L7.35693 13.5131V5.46526L8.89545 4.78298V19.2171L7.35693 18.5348V18.4614L7.27636 18.4862L4.99128 11.054V17.4857L3.45277 16.8034V7.19664L5.17945 6.43091ZM22.5972 18.9894V5.01057L11.2986 0L0 5.01057V18.9894L11.2986 24L22.5972 18.9894Z" fill="url(#paint0_linear_115_3593)"/>
<defs>
<linearGradient id="paint0_linear_115_3593" x1="22.5972" y1="24" x2="-4.53017" y2="16.5944" gradientUnits="userSpaceOnUse">
<stop stop-color="#721D89"/>
<stop offset="0.715" stop-color="#C715F5"/>
</linearGradient>
</defs>
</svg>
