<svg width="24" height="24" viewBox="0 0 24 24" fill="none" xmlns="http://www.w3.org/2000/svg">
<path fill-rule="evenodd" clip-rule="evenodd" d="M19.8467 8.89513V7.19704L12 3.71726L11.2308 4.0584V19.9417L12 20.2828L12.7693 19.9417V12.8657H14.8247V11.2965L12.7693 11.2965V5.77023L16.4339 7.38825V18.3165L17.9724 17.6343V8.06755L19.8467 8.89513ZM21.4501 17.836V17.846L12 22.0368L2.5499 17.846V17.836L2.50522 17.8161V6.18386L2.5499 6.16405V6.15411L12 1.96329L21.4501 6.15411V6.16404L21.4948 6.18386V17.8161L21.4501 17.836ZM5.88087 6.43091L8.05835 13.5131V5.46526L9.59686 4.78298V19.2171L8.05835 18.5348V18.4614L7.97777 18.4862L5.6927 11.054V17.4857L4.15419 16.8034V7.19664L5.88087 6.43091ZM23.2986 18.9894V5.01057L12 0L0.701416 5.01057V18.9894L12 24L23.2986 18.9894Z" fill="#E37BFF"/>
</svg>
