<svg width="200" height="34" viewBox="0 0 200 34" fill="none" xmlns="http://www.w3.org/2000/svg">
<mask id="path-1-inside-1_115_3561" fill="white">
<path d="M0 0H200V22C200 28.6274 194.627 34 188 34H12C5.37258 34 0 28.6274 0 22V0Z"/>
</mask>
<path d="M0 0H200H0ZM201 22C201 29.1797 195.18 35 188 35H12C4.8203 35 -1 29.1797 -1 22H1C1 28.0751 5.92487 33 12 33H188C194.075 33 199 28.0751 199 22H201ZM12 35C4.8203 35 -1 29.1797 -1 22V0H1V22C1 28.0751 5.92487 33 12 33V35ZM201 0V22C201 29.1797 195.18 35 188 35V33C194.075 33 199 28.0751 199 22V0H201Z" fill="url(#paint0_radial_115_3561)" mask="url(#path-1-inside-1_115_3561)"/>
<path d="M190.357 17C190.357 21.1014 187.003 24.4333 182.857 24.4333C178.711 24.4333 175.357 21.1014 175.357 17C175.357 12.8986 178.711 9.56665 182.857 9.56665C187.003 9.56665 190.357 12.8986 190.357 17Z" fill="#73138C" stroke="url(#paint1_radial_115_3561)"/>
<mask id="path-4-inside-2_115_3561" fill="white">
<path d="M9.14282 17.2334C9.14282 15.8527 10.2621 14.7334 11.6428 14.7334H102.643C104.024 14.7334 105.143 15.8527 105.143 17.2334V17.9001C105.143 19.2808 104.024 20.4001 102.643 20.4001H11.6428C10.2621 20.4001 9.14282 19.2808 9.14282 17.9001V17.2334Z"/>
</mask>
<path d="M9.14282 17.2334C9.14282 15.8527 10.2621 14.7334 11.6428 14.7334H102.643C104.024 14.7334 105.143 15.8527 105.143 17.2334V17.9001C105.143 19.2808 104.024 20.4001 102.643 20.4001H11.6428C10.2621 20.4001 9.14282 19.2808 9.14282 17.9001V17.2334Z" fill="#73138C"/>
<path d="M9.14282 14.7334H105.143H9.14282ZM106.143 18.0667C106.143 19.9077 104.65 21.4001 102.809 21.4001H11.4762C9.63521 21.4001 8.14282 19.9077 8.14282 18.0667L10.1428 17.9001C10.1428 18.7285 10.8144 19.4001 11.6428 19.4001H102.643C103.471 19.4001 104.143 18.7285 104.143 17.9001L106.143 18.0667ZM11.4762 21.4001C9.63521 21.4001 8.14282 19.9077 8.14282 18.0667C8.14282 16.2258 9.63521 14.7334 11.4762 14.7334H11.6428C10.8144 14.7334 10.1428 15.8527 10.1428 17.2334V17.9001C10.1428 18.7285 10.8144 19.4001 11.6428 19.4001L11.4762 21.4001ZM102.809 14.7334C104.65 14.7334 106.143 16.2258 106.143 18.0667C106.143 19.9077 104.65 21.4001 102.809 21.4001L102.643 19.4001C103.471 19.4001 104.143 18.7285 104.143 17.9001V17.2334C104.143 15.8527 103.471 14.7334 102.643 14.7334H102.809Z" fill="url(#paint2_radial_115_3561)" mask="url(#path-4-inside-2_115_3561)"/>
<defs>
<radialGradient id="paint0_radial_115_3561" cx="0" cy="0" r="1" gradientUnits="userSpaceOnUse" gradientTransform="translate(100 17) rotate(90) scale(22.869 134.524)">
<stop stop-color="#D9D9D9"/>
<stop offset="1" stop-color="#737373" stop-opacity="0"/>
</radialGradient>
<radialGradient id="paint1_radial_115_3561" cx="0" cy="0" r="1" gradientUnits="userSpaceOnUse" gradientTransform="translate(182.857 17) rotate(90) scale(10.6722 10.7619)">
<stop stop-color="#D9D9D9"/>
<stop offset="1" stop-color="#737373" stop-opacity="0"/>
</radialGradient>
<radialGradient id="paint2_radial_115_3561" cx="0" cy="0" r="1" gradientUnits="userSpaceOnUse" gradientTransform="translate(57.1428 17.5667) rotate(90) scale(3.81151 64.5714)">
<stop stop-color="#D9D9D9"/>
<stop offset="1" stop-color="#737373" stop-opacity="0"/>
</radialGradient>
</defs>
</svg>
